<svg xmlns="http://www.w3.org/2000/svg" viewBox="88.56 194.40 664.74 207.36" role="img" aria-label="Allied Restoration">
<path fill="#003262" fill-rule="evenodd" d="M555.10 395.37C548.33 395.37 542.01 394.76 536.17 393.56C530.28 392.34 524.86 390.51 519.95 388.07L519.94 388.06C514.97 385.57 510.61 382.52 506.85 378.91C503.08 375.27 499.90 371.08 497.33 366.35C494.76 361.62 492.83 356.43 491.55 350.77C490.28 345.14 489.65 339.06 489.65 332.53L489.65 317.49C489.65 310.70 490.25 304.38 491.47 298.54C492.69 292.66 494.54 287.26 497.01 282.35C501.98 272.42 509.23 264.86 518.76 259.67C523.48 257.09 528.70 255.15 534.39 253.85C540.05 252.57 546.13 251.92 552.63 251.92C558.83 251.92 564.63 252.67 570.01 254.15C575.42 255.64 580.37 257.87 584.86 260.83L584.89 260.84C589.35 263.82 593.27 267.45 596.66 271.72C600.04 275.98 602.89 280.87 605.21 286.39C607.50 291.83 609.21 297.83 610.36 304.39C611.49 310.92 612.06 317.95 612.06 325.47L612.06 337.31L522.92 337.31C523.22 340.74 523.87 343.85 524.89 346.64C526.28 350.45 528.34 353.67 531.07 356.27C533.82 358.90 537.16 360.88 541.09 362.20C545.10 363.55 549.77 364.23 555.10 364.23C557.73 364.23 560.32 363.98 562.87 363.49C565.45 362.99 568.04 362.23 570.63 361.23L570.65 361.22C573.21 360.25 575.65 359.06 577.96 357.67C580.32 356.24 582.52 354.63 584.55 352.85L586.88 350.79L609.78 372.39L607.36 374.58C603.71 377.88 599.83 380.81 595.72 383.37C591.59 385.93 587.26 388.11 582.72 389.91L582.71 389.90C578.14 391.71 573.55 393.08 568.96 393.99C564.33 394.91 559.70 395.37 555.10 395.37L555.10 395.37ZM523.03 309.99L578.64 309.99C578.16 306.14 577.37 302.66 576.28 299.57C574.92 295.71 573.07 292.42 570.75 289.70L570.74 289.69C568.51 287.05 565.89 285.07 562.91 283.77C559.91 282.45 556.48 281.79 552.63 281.79C547.78 281.79 543.51 282.52 539.84 283.98C536.26 285.41 533.18 287.56 530.64 290.44L530.64 290.45C528.04 293.37 526.08 296.92 524.77 301.10C523.93 303.79 523.35 306.76 523.03 309.99ZM716.11 200.40L747.30 200.40L747.30 393.44L712.80 393.44L712.80 382.88C710.83 384.89 708.60 386.75 706.13 388.45C702.60 390.90 698.69 392.73 694.38 393.95C690.12 395.16 685.50 395.76 680.50 395.76C675.05 395.76 669.97 395.20 665.28 394.08C660.53 392.94 656.17 391.22 652.21 388.94L652.19 388.93C648.22 386.62 644.73 383.80 641.71 380.45C638.72 377.12 636.20 373.29 634.17 368.95C632.16 364.69 630.65 359.99 629.65 354.85C628.65 349.74 628.15 344.26 628.15 338.40L628.15 309.02C628.15 303.14 628.64 297.63 629.61 292.49L629.60 292.49C630.57 287.39 632.05 282.68 634.03 278.37L634.01 278.37C635.99 274.04 638.45 270.22 641.37 266.88C644.33 263.51 647.75 260.67 651.60 258.37L651.61 258.37C655.48 256.09 659.73 254.37 664.35 253.23C668.92 252.10 673.84 251.53 679.10 251.53C683.60 251.53 687.92 252.09 692.07 253.20C696.19 254.31 700.14 255.97 703.89 258.20C707.13 260.12 710.10 262.37 712.80 264.96L712.80 200.40L716.11 200.40L716.11 200.40ZM712.80 341.25L712.80 305.38C712.80 302.76 712.56 300.34 712.07 298.14C711.58 295.99 710.87 294.03 709.92 292.29C708.97 290.56 707.82 289.04 706.45 287.73C705.11 286.44 703.55 285.34 701.77 284.44L701.76 284.42C699.99 283.51 697.99 282.82 695.79 282.36C693.55 281.89 691.04 281.66 688.28 281.66C684.08 281.66 680.41 282.26 677.26 283.46C674.19 284.63 671.56 286.38 669.37 288.70C667.17 291.06 665.50 293.93 664.38 297.31C663.22 300.78 662.65 304.81 662.65 309.37L662.65 338.40C662.65 342.93 663.22 346.91 664.38 350.34C665.50 353.66 667.15 356.47 669.33 358.77C671.53 361.04 674.16 362.74 677.23 363.88C680.40 365.05 684.08 365.64 688.28 365.64C691.01 365.64 693.51 365.39 695.76 364.90C697.96 364.42 699.95 363.70 701.71 362.76L701.72 362.75C703.51 361.81 705.08 360.66 706.43 359.32C707.79 357.97 708.95 356.40 709.90 354.63C710.87 352.83 711.59 350.82 712.07 348.63C712.56 346.41 712.80 343.95 712.80 341.25ZM175.42 340.25L134.36 393.44L94.56 393.44L142.01 332.18L142.01 332.18L175.42 340.25ZM278.51 393.44L244.06 393.44L244.06 342.43L244.06 321.43C245.50 320.62 246.96 319.82 248.45 319.01L249.14 318.64C250.56 317.88 252.01 317.11 253.49 316.34L254.56 315.78C255.94 315.07 257.35 314.35 258.78 313.63L260.25 312.89C261.51 312.26 262.79 311.63 264.08 311.00L266.18 309.98C267.31 309.44 268.45 308.89 269.61 308.35C270.55 307.90 271.49 307.46 272.44 307.01C273.42 306.56 274.40 306.10 275.39 305.65C276.42 305.18 277.46 304.70 278.51 304.23L278.51 332.93L278.51 393.44L278.51 393.44ZM244.06 286.10L244.59 285.93L245.12 285.75L245.64 285.58L246.17 285.40C247.58 284.94 248.99 284.48 250.41 284.02L250.94 283.84L251.47 283.67L252.01 283.50L252.54 283.32L253.07 283.15L253.61 282.98L254.14 282.80C255.74 282.28 257.35 281.77 258.96 281.25L259.49 281.08L260.03 280.90L261.65 280.39L262.19 280.21L262.72 280.04L266.51 278.84L267.05 278.67L267.59 278.50L269.77 277.81L270.31 277.64L270.85 277.47L274.67 276.27L274.67 276.27L275.22 276.10L275.77 275.93L276.32 275.76L276.86 275.59L277.96 275.25L278.51 275.08L278.51 262.64L278.51 228.62L278.51 200.40L247.37 200.40L244.06 200.40L152.36 318.81C154.54 317.97 156.74 317.13 158.96 316.29L159.19 316.20L159.29 316.16C161.41 315.36 163.55 314.55 165.69 313.74L166.54 313.42C168.58 312.66 170.63 311.89 172.70 311.12L173.67 310.76C175.62 310.04 177.57 309.32 179.54 308.60L181.07 308.03C182.83 307.39 184.60 306.74 186.38 306.10L188.69 305.26C190.24 304.70 191.80 304.13 193.37 303.57L195.97 302.64L196.86 302.32L200.15 301.15L204.04 299.77L204.94 299.45L205.84 299.13L206.75 298.81L207.66 298.50L207.66 298.50L244.06 251.33L244.06 276.89L244.06 286.10ZM473.56 393.44L439.12 393.44L439.12 237.16L473.56 237.16L473.56 393.44L473.56 393.44ZM439.12 226.97L439.12 200.40L442.43 200.40L473.56 200.40L473.56 226.97L439.12 226.97ZM401.31 277.08L401.31 288.41L401.31 329.71L401.31 355.90C401.31 357.22 401.46 358.37 401.75 359.33C402.02 360.21 402.39 360.92 402.85 361.47C403.25 361.94 403.74 362.29 404.31 362.53C404.93 362.79 405.70 362.92 406.62 362.92L423.03 362.92L423.03 394.10L403.36 394.10C397.67 394.10 392.58 393.24 388.10 391.55C383.52 389.82 379.61 387.23 376.37 383.79L376.35 383.79C373.16 380.37 370.77 376.27 369.18 371.50C367.63 366.84 366.86 361.56 366.86 355.64L366.86 335.08L366.86 326.39L366.86 295.71L366.86 289.65L366.86 271.00L366.86 268.94C378.06 265.23 389.57 261.59 401.31 258.04L401.31 259.69L401.31 277.08ZM329.05 355.90C329.05 357.22 329.20 358.37 329.49 359.33C329.76 360.21 330.13 360.92 330.59 361.47C330.99 361.94 331.48 362.29 332.05 362.53C332.68 362.79 333.45 362.92 334.36 362.92L350.77 362.92L350.77 394.10L331.10 394.10C325.41 394.10 320.32 393.24 315.84 391.55C311.26 389.82 307.35 387.23 304.11 383.79L304.10 383.79C300.90 380.37 298.51 376.27 296.92 371.50C295.37 366.84 294.60 361.56 294.60 355.64L294.60 337.99L294.60 320.34L294.60 315.39L294.60 297.90L294.60 296.17C305.47 291.63 316.99 287.11 329.05 282.64L329.05 284.88L329.05 305.36L329.05 306.73L329.05 326.39L329.05 335.08L329.05 355.90ZM366.86 299.57L366.86 240.19L366.86 219.86L366.86 200.40L401.31 200.40L401.31 225.07L401.31 283.58C389.64 288.76 378.14 294.10 366.86 299.57ZM294.60 314.76L294.60 236.98L294.60 200.40L329.05 200.40L329.05 216.44L329.05 233.21L329.05 298.68C317.14 303.96 305.63 309.33 294.60 314.76Z"/>
<path fill="#FF0000" fill-rule="evenodd" d="M244.06 393.44L134.36 393.44L200.34 355.60L244.06 393.44Z"/>
</svg>